<mxfile host="app.diagrams.net" modified="2024-06-17T10:32:40.000Z" agent="Mozilla/5.0 (X11; Linux x86_64; rv:126.0) Gecko/20100101 Firefox/126.0" etag="vYgJDIftmotKHICvs3Nk" version="24.5.2" type="github">
  <diagram name="Page-1" id="EUbfwgt0WfNZQSSa56V4">
    <mxGraphModel dx="1391" dy="805" grid="1" gridSize="10" guides="1" tooltips="1" connect="1" arrows="1" fold="1" page="1" pageScale="1" pageWidth="850" pageHeight="1100" math="0" shadow="0">
      <root>
        <mxCell id="0" />
        <mxCell id="1" parent="0" />
        <mxCell id="ejLEyTY-VwB0Lg7HUNk5-4" style="edgeStyle=orthogonalEdgeStyle;rounded=0;orthogonalLoop=1;jettySize=auto;html=1;entryX=0;entryY=0.5;entryDx=0;entryDy=0;curved=1;" edge="1" parent="1" source="ejLEyTY-VwB0Lg7HUNk5-1" target="ejLEyTY-VwB0Lg7HUNk5-3">
          <mxGeometry relative="1" as="geometry">
            <Array as="points">
              <mxPoint x="50" y="250" />
              <mxPoint x="50" y="450" />
            </Array>
          </mxGeometry>
        </mxCell>
        <mxCell id="ejLEyTY-VwB0Lg7HUNk5-6" value="编辑表格、上传表格" style="edgeLabel;html=1;align=center;verticalAlign=middle;resizable=0;points=[];" vertex="1" connectable="0" parent="ejLEyTY-VwB0Lg7HUNk5-4">
          <mxGeometry x="0.05" y="4" relative="1" as="geometry">
            <mxPoint x="6" y="4" as="offset" />
          </mxGeometry>
        </mxCell>
        <mxCell id="ejLEyTY-VwB0Lg7HUNk5-1" value="用户" style="shape=umlActor;verticalLabelPosition=bottom;verticalAlign=top;html=1;outlineConnect=0;" vertex="1" parent="1">
          <mxGeometry x="70" y="220" width="30" height="60" as="geometry" />
        </mxCell>
        <mxCell id="ejLEyTY-VwB0Lg7HUNk5-11" style="edgeStyle=orthogonalEdgeStyle;rounded=0;orthogonalLoop=1;jettySize=auto;html=1;entryX=0;entryY=0.5;entryDx=0;entryDy=0;curved=1;" edge="1" parent="1" source="ejLEyTY-VwB0Lg7HUNk5-3" target="ejLEyTY-VwB0Lg7HUNk5-10">
          <mxGeometry relative="1" as="geometry" />
        </mxCell>
        <mxCell id="ejLEyTY-VwB0Lg7HUNk5-3" value="读取表格" style="shape=ellipse;html=1;dashed=0;whiteSpace=wrap;aspect=fixed;perimeter=ellipsePerimeter;" vertex="1" parent="1">
          <mxGeometry x="70" y="420" width="60" height="60" as="geometry" />
        </mxCell>
        <mxCell id="ejLEyTY-VwB0Lg7HUNk5-14" style="edgeStyle=orthogonalEdgeStyle;rounded=0;orthogonalLoop=1;jettySize=auto;html=1;entryX=0;entryY=0.5;entryDx=0;entryDy=0;curved=1;" edge="1" parent="1" source="ejLEyTY-VwB0Lg7HUNk5-8" target="ejLEyTY-VwB0Lg7HUNk5-13">
          <mxGeometry relative="1" as="geometry" />
        </mxCell>
        <mxCell id="ejLEyTY-VwB0Lg7HUNk5-8" value="解析 xlsx" style="shape=ellipse;html=1;dashed=0;whiteSpace=wrap;aspect=fixed;perimeter=ellipsePerimeter;" vertex="1" parent="1">
          <mxGeometry x="340" y="390" width="60" height="60" as="geometry" />
        </mxCell>
        <mxCell id="ejLEyTY-VwB0Lg7HUNk5-12" style="edgeStyle=orthogonalEdgeStyle;rounded=0;orthogonalLoop=1;jettySize=auto;html=1;entryX=0;entryY=0.5;entryDx=0;entryDy=0;curved=1;" edge="1" parent="1" source="ejLEyTY-VwB0Lg7HUNk5-10" target="ejLEyTY-VwB0Lg7HUNk5-8">
          <mxGeometry relative="1" as="geometry" />
        </mxCell>
        <mxCell id="ejLEyTY-VwB0Lg7HUNk5-10" value="XLSX 数据" style="html=1;dashed=0;whiteSpace=wrap;shape=partialRectangle;right=0;left=0;" vertex="1" parent="1">
          <mxGeometry x="200" y="405" width="100" height="30" as="geometry" />
        </mxCell>
        <mxCell id="ejLEyTY-VwB0Lg7HUNk5-27" style="edgeStyle=orthogonalEdgeStyle;rounded=0;orthogonalLoop=1;jettySize=auto;html=1;entryX=0.5;entryY=1;entryDx=0;entryDy=0;curved=1;" edge="1" parent="1" source="ejLEyTY-VwB0Lg7HUNk5-13" target="ejLEyTY-VwB0Lg7HUNk5-26">
          <mxGeometry relative="1" as="geometry" />
        </mxCell>
        <mxCell id="ejLEyTY-VwB0Lg7HUNk5-28" value="请求服务" style="edgeLabel;html=1;align=center;verticalAlign=middle;resizable=0;points=[];" vertex="1" connectable="0" parent="ejLEyTY-VwB0Lg7HUNk5-27">
          <mxGeometry x="-0.1171" y="4" relative="1" as="geometry">
            <mxPoint as="offset" />
          </mxGeometry>
        </mxCell>
        <mxCell id="ejLEyTY-VwB0Lg7HUNk5-13" value="JSON 数据" style="html=1;dashed=0;whiteSpace=wrap;shape=partialRectangle;right=0;left=0;" vertex="1" parent="1">
          <mxGeometry x="450" y="390" width="100" height="30" as="geometry" />
        </mxCell>
        <mxCell id="ejLEyTY-VwB0Lg7HUNk5-22" style="edgeStyle=orthogonalEdgeStyle;rounded=0;orthogonalLoop=1;jettySize=auto;html=1;entryX=0;entryY=0.5;entryDx=0;entryDy=0;curved=1;" edge="1" parent="1" source="ejLEyTY-VwB0Lg7HUNk5-17" target="ejLEyTY-VwB0Lg7HUNk5-21">
          <mxGeometry relative="1" as="geometry" />
        </mxCell>
        <mxCell id="ejLEyTY-VwB0Lg7HUNk5-23" value="持久化" style="edgeLabel;html=1;align=center;verticalAlign=middle;resizable=0;points=[];" vertex="1" connectable="0" parent="ejLEyTY-VwB0Lg7HUNk5-22">
          <mxGeometry x="0.0574" relative="1" as="geometry">
            <mxPoint as="offset" />
          </mxGeometry>
        </mxCell>
        <mxCell id="ejLEyTY-VwB0Lg7HUNk5-17" value="存储业务服务" style="shape=ellipse;html=1;dashed=0;whiteSpace=wrap;aspect=fixed;perimeter=ellipsePerimeter;" vertex="1" parent="1">
          <mxGeometry x="600" y="130" width="60" height="60" as="geometry" />
        </mxCell>
        <mxCell id="ejLEyTY-VwB0Lg7HUNk5-32" style="edgeStyle=orthogonalEdgeStyle;rounded=0;orthogonalLoop=1;jettySize=auto;html=1;entryX=1;entryY=0.5;entryDx=0;entryDy=0;curved=1;" edge="1" parent="1" source="ejLEyTY-VwB0Lg7HUNk5-21" target="ejLEyTY-VwB0Lg7HUNk5-25">
          <mxGeometry relative="1" as="geometry" />
        </mxCell>
        <mxCell id="ejLEyTY-VwB0Lg7HUNk5-33" value="数据查询" style="edgeLabel;html=1;align=center;verticalAlign=middle;resizable=0;points=[];" vertex="1" connectable="0" parent="ejLEyTY-VwB0Lg7HUNk5-32">
          <mxGeometry x="0.3514" y="-1" relative="1" as="geometry">
            <mxPoint as="offset" />
          </mxGeometry>
        </mxCell>
        <mxCell id="ejLEyTY-VwB0Lg7HUNk5-21" value="DB" style="shape=cylinder;whiteSpace=wrap;html=1;boundedLbl=1;backgroundOutline=1;" vertex="1" parent="1">
          <mxGeometry x="710" y="40" width="60" height="80" as="geometry" />
        </mxCell>
        <mxCell id="ejLEyTY-VwB0Lg7HUNk5-35" style="edgeStyle=orthogonalEdgeStyle;rounded=0;orthogonalLoop=1;jettySize=auto;html=1;entryX=1;entryY=0.5;entryDx=0;entryDy=0;curved=1;" edge="1" parent="1" source="ejLEyTY-VwB0Lg7HUNk5-25" target="ejLEyTY-VwB0Lg7HUNk5-34">
          <mxGeometry relative="1" as="geometry" />
        </mxCell>
        <mxCell id="ejLEyTY-VwB0Lg7HUNk5-25" value="查询业务服务" style="shape=ellipse;html=1;dashed=0;whiteSpace=wrap;aspect=fixed;perimeter=ellipsePerimeter;" vertex="1" parent="1">
          <mxGeometry x="510" y="10" width="60" height="60" as="geometry" />
        </mxCell>
        <mxCell id="ejLEyTY-VwB0Lg7HUNk5-29" style="edgeStyle=orthogonalEdgeStyle;rounded=0;orthogonalLoop=1;jettySize=auto;html=1;entryX=0;entryY=0.5;entryDx=0;entryDy=0;curved=1;" edge="1" parent="1" source="ejLEyTY-VwB0Lg7HUNk5-26" target="ejLEyTY-VwB0Lg7HUNk5-30">
          <mxGeometry relative="1" as="geometry">
            <mxPoint x="570" y="260" as="targetPoint" />
          </mxGeometry>
        </mxCell>
        <mxCell id="ejLEyTY-VwB0Lg7HUNk5-26" value="处理关系" style="shape=ellipse;html=1;dashed=0;whiteSpace=wrap;aspect=fixed;perimeter=ellipsePerimeter;" vertex="1" parent="1">
          <mxGeometry x="640" y="370" width="60" height="60" as="geometry" />
        </mxCell>
        <mxCell id="ejLEyTY-VwB0Lg7HUNk5-31" style="edgeStyle=orthogonalEdgeStyle;rounded=0;orthogonalLoop=1;jettySize=auto;html=1;entryX=0.5;entryY=1;entryDx=0;entryDy=0;curved=1;" edge="1" parent="1" source="ejLEyTY-VwB0Lg7HUNk5-30" target="ejLEyTY-VwB0Lg7HUNk5-17">
          <mxGeometry relative="1" as="geometry" />
        </mxCell>
        <mxCell id="ejLEyTY-VwB0Lg7HUNk5-30" value="关系型数据" style="html=1;dashed=0;whiteSpace=wrap;shape=partialRectangle;right=0;left=0;" vertex="1" parent="1">
          <mxGeometry x="600" y="250" width="100" height="30" as="geometry" />
        </mxCell>
        <mxCell id="ejLEyTY-VwB0Lg7HUNk5-37" style="edgeStyle=orthogonalEdgeStyle;rounded=0;orthogonalLoop=1;jettySize=auto;html=1;entryX=1;entryY=0.5;entryDx=0;entryDy=0;curved=1;" edge="1" parent="1" source="ejLEyTY-VwB0Lg7HUNk5-34" target="ejLEyTY-VwB0Lg7HUNk5-36">
          <mxGeometry relative="1" as="geometry" />
        </mxCell>
        <mxCell id="ejLEyTY-VwB0Lg7HUNk5-47" style="edgeStyle=orthogonalEdgeStyle;rounded=0;orthogonalLoop=1;jettySize=auto;html=1;entryX=0.5;entryY=0;entryDx=0;entryDy=0;curved=1;" edge="1" parent="1" source="ejLEyTY-VwB0Lg7HUNk5-34" target="ejLEyTY-VwB0Lg7HUNk5-46">
          <mxGeometry relative="1" as="geometry" />
        </mxCell>
        <mxCell id="ejLEyTY-VwB0Lg7HUNk5-34" value="关系型数据" style="html=1;dashed=0;whiteSpace=wrap;shape=partialRectangle;right=0;left=0;" vertex="1" parent="1">
          <mxGeometry x="450" y="150" width="100" height="30" as="geometry" />
        </mxCell>
        <mxCell id="ejLEyTY-VwB0Lg7HUNk5-39" value="" style="edgeStyle=orthogonalEdgeStyle;rounded=0;orthogonalLoop=1;jettySize=auto;html=1;curved=1;entryX=1;entryY=0.5;entryDx=0;entryDy=0;" edge="1" parent="1" source="ejLEyTY-VwB0Lg7HUNk5-36" target="ejLEyTY-VwB0Lg7HUNk5-41">
          <mxGeometry relative="1" as="geometry">
            <mxPoint x="339.999980182316" y="90.0344827586207" as="targetPoint" />
          </mxGeometry>
        </mxCell>
        <mxCell id="ejLEyTY-VwB0Lg7HUNk5-36" value="映射对象" style="shape=ellipse;html=1;dashed=0;whiteSpace=wrap;aspect=fixed;perimeter=ellipsePerimeter;" vertex="1" parent="1">
          <mxGeometry x="365" y="40" width="60" height="60" as="geometry" />
        </mxCell>
        <mxCell id="ejLEyTY-VwB0Lg7HUNk5-41" value="JSON 数据" style="html=1;dashed=0;whiteSpace=wrap;shape=partialRectangle;right=0;left=0;" vertex="1" parent="1">
          <mxGeometry x="220" y="90" width="100" height="30" as="geometry" />
        </mxCell>
        <mxCell id="ejLEyTY-VwB0Lg7HUNk5-42" style="edgeStyle=orthogonalEdgeStyle;rounded=0;orthogonalLoop=1;jettySize=auto;html=1;entryX=0.5;entryY=0;entryDx=0;entryDy=0;entryPerimeter=0;curved=1;" edge="1" parent="1" source="ejLEyTY-VwB0Lg7HUNk5-41" target="ejLEyTY-VwB0Lg7HUNk5-1">
          <mxGeometry relative="1" as="geometry" />
        </mxCell>
        <mxCell id="ejLEyTY-VwB0Lg7HUNk5-43" value="前端页面展示数据表格" style="edgeLabel;html=1;align=center;verticalAlign=middle;resizable=0;points=[];" vertex="1" connectable="0" parent="ejLEyTY-VwB0Lg7HUNk5-42">
          <mxGeometry x="0.3228" y="28" relative="1" as="geometry">
            <mxPoint as="offset" />
          </mxGeometry>
        </mxCell>
        <mxCell id="ejLEyTY-VwB0Lg7HUNk5-48" style="edgeStyle=orthogonalEdgeStyle;rounded=0;orthogonalLoop=1;jettySize=auto;html=1;entryX=0.5;entryY=1;entryDx=0;entryDy=0;curved=1;" edge="1" parent="1" source="ejLEyTY-VwB0Lg7HUNk5-46" target="ejLEyTY-VwB0Lg7HUNk5-41">
          <mxGeometry relative="1" as="geometry" />
        </mxCell>
        <mxCell id="ejLEyTY-VwB0Lg7HUNk5-46" value="统计方法" style="shape=ellipse;html=1;dashed=0;whiteSpace=wrap;aspect=fixed;perimeter=ellipsePerimeter;" vertex="1" parent="1">
          <mxGeometry x="410" y="235" width="60" height="60" as="geometry" />
        </mxCell>
        <mxCell id="ejLEyTY-VwB0Lg7HUNk5-49" style="edgeStyle=orthogonalEdgeStyle;rounded=0;orthogonalLoop=1;jettySize=auto;html=1;entryX=1;entryY=0.3333333333333333;entryDx=0;entryDy=0;entryPerimeter=0;curved=1;" edge="1" parent="1" source="ejLEyTY-VwB0Lg7HUNk5-41" target="ejLEyTY-VwB0Lg7HUNk5-1">
          <mxGeometry relative="1" as="geometry">
            <Array as="points">
              <mxPoint x="200" y="105" />
              <mxPoint x="200" y="240" />
            </Array>
          </mxGeometry>
        </mxCell>
        <mxCell id="ejLEyTY-VwB0Lg7HUNk5-50" value="数据统计结果" style="edgeLabel;html=1;align=center;verticalAlign=middle;resizable=0;points=[];" vertex="1" connectable="0" parent="ejLEyTY-VwB0Lg7HUNk5-49">
          <mxGeometry x="-0.0039" y="-11" relative="1" as="geometry">
            <mxPoint as="offset" />
          </mxGeometry>
        </mxCell>
      </root>
    </mxGraphModel>
  </diagram>
</mxfile>
